<svg width="260" height="260" viewBox="0 0 260 260" fill="none" xmlns="http://www.w3.org/2000/svg">
<g opacity="0.6">
<path d="M17.0342 65.4717L65.5012 17.0046C56.8966 21.9216 48.9065 27.8044 41.6774 34.4774L34.5069 41.6479C27.8339 48.877 21.9511 56.867 17.0342 65.4717Z" fill="#FFBEE4"/>
<path d="M2.57617 103.988L104.017 2.54626C101.208 3.10235 98.4566 3.7755 95.7054 4.50719L4.53705 95.6756C3.80536 98.4267 3.13226 101.178 2.57617 103.988Z" fill="#FFBEE4"/>
<path d="M0 129.772C0 130.036 0 130.328 0 130.592L130.621 0C130.358 0 130.065 0 129.802 0C127.899 0 126.026 0.058535 124.182 0.11707L0.146302 124.153C0.0584994 126.026 0 127.899 0 129.772Z" fill="#FFBEE4"/>
<path d="M2.01919 152.659L152.659 2.01941C150.845 1.69747 149.001 1.40479 147.186 1.17065L1.17041 147.186C1.40455 149.001 1.69725 150.845 2.01919 152.659Z" fill="#FFBEE4"/>
<path d="M6.93692 171.771L171.772 6.93622C170.191 6.38014 168.582 5.88259 166.972 5.41431L5.41504 166.971C5.91259 168.581 6.4101 170.191 6.93692 171.771Z" fill="#FFBEE4"/>
<path d="M14.1074 188.658L188.688 14.0775C187.283 13.3751 185.849 12.6727 184.415 11.9995L12.0293 184.385C12.7025 185.819 13.3757 187.254 14.1074 188.658Z" fill="#FFBEE4"/>
<path d="M23.1215 203.702L203.731 23.0922C202.473 22.2141 201.214 21.3654 199.927 20.5459L20.5752 199.897C21.3947 201.185 22.2434 202.444 23.1215 203.702Z" fill="#FFBEE4"/>
<path d="M33.7749 217.107L217.107 33.7747C215.995 32.7797 214.882 31.7846 213.741 30.8187L30.8188 213.741C31.7847 214.853 32.7798 215.994 33.7749 217.107Z" fill="#FFBEE4"/>
<path d="M46.038 228.902L228.931 46.0087C227.965 44.8672 226.97 43.7258 225.975 42.6136L42.6431 225.946C43.7552 226.941 44.8673 227.936 46.038 228.902Z" fill="#FFBEE4"/>
<path d="M59.8516 239.116L239.145 59.8228C238.325 58.5351 237.476 57.2766 236.598 56.0181L56.0469 236.599C57.3054 237.448 58.5638 238.296 59.8516 239.116Z" fill="#FFBEE4"/>
<path d="M75.3931 247.633L247.633 75.3933C246.959 73.9592 246.286 72.5251 245.555 71.1202L71.0908 245.584C72.5249 246.286 73.959 246.96 75.3931 247.633Z" fill="#FFBEE4"/>
<path d="M92.8662 254.218L254.247 92.8365C253.779 91.2268 253.252 89.6171 252.726 88.0366L88.0664 252.696C89.6469 253.252 91.2565 253.749 92.8662 254.218Z" fill="#FFBEE4"/>
<path d="M112.71 258.432L258.462 112.68C258.228 110.836 257.935 108.992 257.613 107.178L107.208 257.584C109.022 257.905 110.866 258.198 112.71 258.432Z" fill="#FFBEE4"/>
<path d="M129.801 259.574C131.821 259.574 133.811 259.516 135.772 259.428L259.427 135.772C259.515 133.782 259.574 131.792 259.574 129.802C259.574 129.626 259.574 129.48 259.574 129.304L129.304 259.574C129.45 259.545 129.626 259.574 129.801 259.574Z" fill="#FFBEE4"/>
<path d="M164.337 254.891L254.92 164.308C255.681 161.557 256.355 158.776 256.94 155.967L155.996 256.911C158.806 256.325 161.586 255.652 164.337 254.891Z" fill="#FFBEE4"/>
<path d="M242.072 194.863L194.863 242.072C214.414 230.716 230.716 214.414 242.072 194.863Z" fill="#FFBEE4"/>
</g>
</svg>
