<svg width="1920" height="1314" viewBox="0 0 1920 1314" fill="none" xmlns="http://www.w3.org/2000/svg">
<rect width="1920" height="1314" fill="#FFE8F6" fill-opacity="0.35"/>
<mask id="mask0" mask-type="alpha" maskUnits="userSpaceOnUse" x="0" y="227" width="1920" height="940">
<rect y="227" width="1920" height="940" fill="#C4C4C4"/>
</mask>
<g mask="url(#mask0)">
<path opacity="0.05" d="M2225 939.502C2011.32 909.233 1580.14 769.185 1564.94 451.147C1549.73 133.109 1156.12 570.233 980.453 727.537C758.989 953.566 307.864 1198.3 142.601 821.234C109.576 463.126 -17.8394 403.535 -128.688 435.62C-176.04 434.894 -217.697 467.417 -251 508.892C-218.548 478.519 -175.068 449.045 -128.688 435.62C-53.8604 436.768 35.1868 520.945 127.959 784.036C132.55 797.056 137.436 809.448 142.601 821.234C189.445 1329.18 842.516 944.506 1117.8 679.237C1191.39 613.948 1303.34 506.632 1394.6 451.147C1485.85 395.662 1494.72 556.731 1482.05 657.786C1457.81 851.006 1557.64 989.267 2225 939.502Z" fill="#D22D8F" fill-opacity="0.7"/>
</g>
</svg>
