<svg width="1920" height="1172" viewBox="0 0 1920 1172" fill="none" xmlns="http://www.w3.org/2000/svg">
<mask id="mask0" mask-type="alpha" maskUnits="userSpaceOnUse" x="0" y="0" width="1920" height="1172">
<rect width="1920" height="1172" fill="#C4C4C4"/>
</mask>
<g mask="url(#mask0)">
<rect x="-7" width="1938" height="2013" fill="url(#paint0_linear)" fill-opacity="0.45"/>
<path opacity="0.05" d="M-442 289.498C-228.316 319.767 202.855 459.815 218.064 777.853C233.273 1095.89 626.884 658.767 802.547 501.463C1024.01 275.434 1475.14 30.7009 1640.4 407.766C1673.42 765.874 1800.84 825.465 1911.69 793.38C1959.04 794.106 2000.7 761.583 2034 720.108C2001.55 750.481 1958.07 779.955 1911.69 793.38C1836.86 792.232 1747.81 708.055 1655.04 444.964C1650.45 431.944 1645.56 419.552 1640.4 407.766C1593.56 -100.18 940.484 284.494 665.204 549.763C591.606 615.052 479.656 722.368 388.403 777.853C297.15 833.338 288.278 672.269 300.952 571.214C325.185 377.994 225.364 239.733 -442 289.498Z" fill="#29A5FF"/>
</g>
<defs>
<linearGradient id="paint0_linear" x1="737.5" y1="1231" x2="261.726" y2="-5.33854" gradientUnits="userSpaceOnUse">
<stop stop-color="#29A5FF" stop-opacity="0.42"/>
<stop offset="1" stop-color="#29A5FF" stop-opacity="0"/>
</linearGradient>
</defs>
</svg>
